<svg aria-hidden="true" style="position: absolute; width: 0; height: 0; overflow: hidden;" version="1.1" xmlns="http://www.w3.org/2000/svg" xmlns:xlink="http://www.w3.org/1999/xlink">
<defs>
<symbol id="icon-film" viewBox="0 0 32 32">
<path fill="none" stroke="#fff" style="stroke: var(--color1, #fff)" stroke-linejoin="round" stroke-linecap="round" stroke-miterlimit="4" stroke-width="2.1695" d="M26.427 2.667h-20.853c-1.605 0-2.907 1.301-2.907 2.907v20.853c0 1.605 1.301 2.907 2.907 2.907h20.853c1.605 0 2.907-1.301 2.907-2.907v-20.853c0-1.605-1.301-2.907-2.907-2.907z"></path>
<path fill="none" stroke="#fff" style="stroke: var(--color1, #fff)" stroke-linejoin="round" stroke-linecap="round" stroke-miterlimit="4" stroke-width="2.1695" d="M9.333 2.667v26.667"></path>
<path fill="none" stroke="#fff" style="stroke: var(--color1, #fff)" stroke-linejoin="round" stroke-linecap="round" stroke-miterlimit="4" stroke-width="2.1695" d="M22.667 2.667v26.667"></path>
<path fill="none" stroke="#fff" style="stroke: var(--color1, #fff)" stroke-linejoin="round" stroke-linecap="round" stroke-miterlimit="4" stroke-width="2.1695" d="M2.667 16h26.667"></path>
<path fill="none" stroke="#fff" style="stroke: var(--color1, #fff)" stroke-linejoin="round" stroke-linecap="round" stroke-miterlimit="4" stroke-width="2.1695" d="M2.667 9.333h6.667"></path>
<path fill="none" stroke="#fff" style="stroke: var(--color1, #fff)" stroke-linejoin="round" stroke-linecap="round" stroke-miterlimit="4" stroke-width="2.1695" d="M2.667 22.667h6.667"></path>
<path fill="none" stroke="#fff" style="stroke: var(--color1, #fff)" stroke-linejoin="round" stroke-linecap="round" stroke-miterlimit="4" stroke-width="2.1695" d="M22.667 22.667h6.667"></path>
<path fill="none" stroke="#fff" style="stroke: var(--color1, #fff)" stroke-linejoin="round" stroke-linecap="round" stroke-miterlimit="4" stroke-width="2.1695" d="M22.667 9.333h6.667"></path>
</symbol>
<symbol id="icon-search" viewBox="0 0 50 50">
<path d="M 21 3 C 11.621094 3 4 10.621094 4 20 C 4 29.378906 11.621094 37 21 37 C 24.710938 37 28.140625 35.804688 30.9375 33.78125 L 44.09375 46.90625 L 46.90625 44.09375 L 33.90625 31.0625 C 36.460938 28.085938 38 24.222656 38 20 C 38 10.621094 30.378906 3 21 3 Z M 21 5 C 29.296875 5 36 11.703125 36 20 C 36 28.296875 29.296875 35 21 35 C 12.703125 35 6 28.296875 6 20 C 6 11.703125 12.703125 5 21 5 Z"></path>
</symbol>
<symbol id="icon-close" viewBox="0 0 32 32">
<path d= "M23.884 6.706l-7.884 7.884-7.884-7.884c-0.177-0.162-0.414-0.262-0.674-0.262-0.551 0-0.998 0.447-0.998 0.998 0 0.26 0.099 0.497 0.262 0.674l-0.001-0.001 7.88 7.884-7.882 7.882c-0.188 0.179-0.306 0.431-0.309 0.709v0.001c-0 0.004-0 0.008-0 0.012 0 0.415 0.254 0.771 0.614 0.921l0.007 0.002c0.112 0.047 0.241 0.074 0.377 0.074 0.144 0 0.28-0.030 0.404-0.085l-0.006 0.003c0.127-0.056 0.234-0.132 0.324-0.226l0-0 7.886-7.882 7.884 7.884c0.177 0.161 0.413 0.26 0.672 0.26 0.551 0 0.998-0.447 0.998-0.998 0-0.259-0.099-0.495-0.261-0.673l0.001 0.001-7.884-7.884 7.884-7.886c0.188-0.179 0.306-0.431 0.309-0.709v-0.001c0-0.004 0-0.008 0-0.013 0-0.275-0.111-0.524-0.292-0.705v0c-0.181-0.181-0.43-0.293-0.706-0.293-0.144 0-0.28 0.030-0.404 0.085l0.006-0.003c-0.127 0.056-0.234 0.132-0.324 0.226l-0 0v0.002z"></path>
</symbol>
<symbol id="icon-play3" viewBox="0 0 32 32">
<path fill="#f00" style="fill: var(--color1, #f00)" d="M29.424 9.266c-0.334-1.204-1.264-2.134-2.443-2.462l-0.025-0.006c-2.192-0.578-10.956-0.578-10.956-0.578s-8.764 0-10.956 0.578c-1.2 0.322-2.144 1.268-2.468 2.468-0.576 2.19-0.576 6.734-0.576 6.734s0 4.566 0.576 6.734c0.324 1.2 1.27 2.146 2.468 2.468 2.192 0.578 10.956 0.578 10.956 0.578s8.764 0 10.956-0.578c1.204-0.334 2.134-1.264 2.462-2.443l0.006-0.025c0.576-2.19 0.576-6.734 0.576-6.734s0-4.544-0.576-6.734z"></path>
<path fill="#fff" style="fill: var(--color2, #fff)" d="M13.186 20.22l7.288-4.196-7.288-4.22v8.416z"></path>
</symbol>
<symbol id="icon-arrow-up" viewBox="0 0 20 20">
<path d="M9 3.828l-6.071 6.071-1.414-1.414 8.485-8.485 8.485 8.485-1.414 1.414-6.071-6.071v16.172h-2v-16.172z"></path>
</symbol>
</defs>
</svg>